<svg enable-background="new 0 0 24 24" height="30" viewBox="0 0 24 24" width="30"
	xmlns="http://www.w3.org/2000/svg">
	<path d="m8.889 24c-.131 0-.259-.052-.354-.146-.123-.123-.173-.3-.133-.468l1.09-4.625c.021-.09.067-.173.133-.239l9.546-9.546c.781-.781 2.049-.78 2.829 0l1.414 1.414c.378.377.586.879.586 1.413 0 .535-.208 1.037-.586 1.414l-9.546 9.546c-.065.066-.148.112-.239.133l-4.625 1.09c-.038.01-.077.014-.115.014zm1.544-4.873-.872 3.7 3.701-.872 9.445-9.445c.189-.189.293-.44.293-.707s-.104-.518-.293-.707l-1.414-1.414c-.39-.39-1.025-.391-1.415 0zm3.082 3.283h.01z"/>
	<path d="m20.586 15.839c-.128 0-.256-.049-.354-.146l-3.536-3.536c-.195-.195-.195-.512 0-.707s.512-.195.707 0l3.536 3.536c.195.195.195.512 0 .707-.097.097-.225.146-.353.146z"/>
	<path d="m6.84 21h-4.84c-1.103 0-2-.897-2-2v-17c0-1.103.897-2 2-2h15c1.103 0 2 .897 2 2v4.88c0 .276-.224.5-.5.5s-.5-.224-.5-.5v-4.88c0-.551-.449-1-1-1h-15c-.551 0-1 .449-1 1v17c0 .551.449 1 1 1h4.84c.276 0 .5.224.5.5s-.224.5-.5.5z"/>
	<path d="m18.5 6h-18c-.276 0-.5-.224-.5-.5s.224-.5.5-.5h18c.276 0 .5.224.5.5s-.224.5-.5.5z"/>
	<path d="m14.82 11h-14.32c-.276 0-.5-.224-.5-.5s.224-.5.5-.5h14.32c.276 0 .5.224.5.5s-.224.5-.5.5z"/>
	<path d="m9.5 16h-9c-.276 0-.5-.224-.5-.5s.224-.5.5-.5h9c.276 0 .5.224.5.5s-.224.5-.5.5z"/>
	<path d="m9.5 16c-.276 0-.5-.224-.5-.5v-10c0-.276.224-.5.5-.5s.5.224.5.5v10c0 .276-.224.5-.5.5z"/>
</svg>