<svg height="30" viewBox="0 0 74 74" width="30"
	xmlns="http://www.w3.org/2000/svg">
	<g id="Numbers">
		<text fill="rgb(0,0,0)" font-family="ArialMT, Arial" font-size="18" transform="translate(31.995 -762.544)">4<tspan x="-5.005" y="124">14</tspan>
			<tspan x="-5.005" y="248">24</tspan>
			<tspan x="-5.005" y="372">34</tspan>
			<tspan x="-5.005" y="496">44</tspan>
			<tspan x="-5.005" y="620">54</tspan>
			<tspan x="-5.005" y="744">64</tspan>
			<tspan x="-5.005" y="868">74</tspan>
			<tspan x="-5.005" y="992">84</tspan>
			<tspan x="-5.005" y="1116">94</tspan>
			<tspan x="-10.011" y="1240">104</tspan>
			<tspan letter-spacing="-.074em" x="-9.343" y="1364">1</tspan>
			<tspan x="-.668" y="1364">14</tspan>
			<tspan x="-10.011" y="1488">124</tspan>
			<tspan x="-10.011" y="1612">134</tspan>
			<tspan x="-10.011" y="1736">144</tspan>
			<tspan x="-10.011" y="1860">154</tspan>
			<tspan x="-10.011" y="1984">164</tspan>
			<tspan x="-10.011" y="2108">174</tspan>
			<tspan x="-10.011" y="2232">184</tspan>
			<tspan x="-10.011" y="2356">194</tspan>
			<tspan x="-10.011" y="2480">204</tspan>
			<tspan x="-10.011" y="2604">214</tspan>
			<tspan x="-10.011" y="2728">224</tspan>
			<tspan x="-10.011" y="2852">234</tspan>
			<tspan x="-10.011" y="2976">244</tspan>
			<tspan x="-10.011" y="3100">254</tspan>
			<tspan x="-10.011" y="3224">264</tspan>
			<tspan x="-10.011" y="3348">274</tspan>
			<tspan x="-10.011" y="3472">284</tspan>
			<tspan x="-10.011" y="3596">294</tspan>
		</text>
	</g>
	<g id="_2_PT" data-name="2 PT">
		<path d="m50.235 62h-47.235a1 1 0 0 1 -1-1v-.654a30.321 30.321 0 0 1 22.85-29.429l.492 1.938a28.321 28.321 0 0 0 -21.342 27.145h46.235z"/>
		<path d="m58.835 50.122a28.457 28.457 0 0 0 -19.443-17.266l.492-1.938a30.46 30.46 0 0 1 20.816 18.482z"/>
		<path d="m32.369 34.743a16.146 16.146 0 1 1 16.146-16.143 16.164 16.164 0 0 1 -16.146 16.143zm0-30.292a14.146 14.146 0 1 0 14.146 14.149 14.162 14.162 0 0 0 -14.146-14.149z"/>
		<path d="m60.578 71.549a11.412 11.412 0 1 1 11.422-11.412 11.425 11.425 0 0 1 -11.422 11.412zm0-20.824a9.412 9.412 0 1 0 9.422 9.412 9.422 9.422 0 0 0 -9.422-9.411z"/>
		<path d="m59.583 55.124h2v10.026h-2z"/>
		<path d="m55.57 59.137h10.026v2h-10.026z"/>
	</g>
</svg>