<svg height="30" viewBox="0 0 55 60" width="30"
	xmlns="http://www.w3.org/2000/svg">
	<g id="Page-1" fill="none" fill-rule="evenodd">
		<g id="037---Search-File" fill="rgb(0,0,0)" fill-rule="nonzero">
			<path id="Shape" d="m41 56h-25c-.5522847 0-1 .4477153-1 1s.4477153 1 1 1h26c.1304105-.0003129.2595007-.0261309.38-.076.1225944-.0493971.2338525-.1232289.327-.217l12-12c.0934507-.09341.1672365-.2045988.217-.327.0498691-.1204993.0756871-.2495895.076-.38v-40c-.0033061-2.76005315-2.2399468-4.99669388-5-5h-40c-2.76005315.00330612-4.99669388 2.23994685-5 5v36c0 .5522847.44771525 1 1 1s1-.4477153 1-1v-36c0-1.65685425 1.34314575-3 3-3h40c1.6568542 0 3 1.34314575 3 3v39h-7c-2.7600532.0033061-4.9966939 2.2399468-5 5zm5-10h5.586l-8.586 8.586v-5.586c0-1.6568542 1.3431458-3 3-3z"/>
			<path id="Shape" d="m14 6h-2c-.5522847 0-1 .44771525-1 1s.4477153 1 1 1h2c.5522847 0 1-.44771525 1-1s-.4477153-1-1-1z"/>
			<path id="Shape" d="m48 6h-30c-.5522847 0-1 .44771525-1 1s.4477153 1 1 1h30c.5522847 0 1-.44771525 1-1s-.4477153-1-1-1z"/>
			<path id="Shape" d="m14 12h-2c-.5522847 0-1 .4477153-1 1s.4477153 1 1 1h2c.5522847 0 1-.4477153 1-1s-.4477153-1-1-1z"/>
			<path id="Shape" d="m18 14h23c.5522847 0 1-.4477153 1-1s-.4477153-1-1-1h-23c-.5522847 0-1 .4477153-1 1s.4477153 1 1 1z"/>
			<path id="Shape" d="m51 21c0-.5522847-.4477153-1-1-1s-1 .4477153-1 1v14c0 .5522847.4477153 1 1 1s1-.4477153 1-1z"/>
			<path id="Shape" d="m50 38c-.5522847 0-1 .4477153-1 1v2c0 .5522847.4477153 1 1 1s1-.4477153 1-1v-2c0-.5522847-.4477153-1-1-1z"/>
			<path id="Shape" d="m25.92 46.075c5.6749345-.0046376 10.5707653-3.9839868 11.7349657-9.5382231 1.1642004-5.5542362-1.7215596-11.1646523-6.9169657-13.4477769-.505444-.2174349-1.0915902.0143101-1.3116847.5186016-.2200945.5042916.0085596 1.0916504.5116847 1.3143984 4.5489931 1.9903501 6.9522383 7.0138118 5.6473989 11.80466-1.3048393 4.7908481-5.923579 7.9017962-10.8536016 7.3104338-4.9300225-.5913623-8.6819976-4.7063882-8.8167867-9.6699216-.134789-4.9635334 3.3883269-9.2761206 8.2789894-10.1341722.3597892-.0524822.662741-.2961161.7911843-.6362704s.0621357-.7232217-.1731679-1.0004127-.6025199-.4048212-.9590164-.3333169c-6.1094789 1.0940641-10.3765254 6.6664404-9.8397744 12.8498543.5367511 6.1834138 5.7001582 10.9371799 11.9067744 10.9621457z"/>
			<path id="Shape" d="m2.586 58.828c1.56199941 1.5615278 4.09400059 1.5615278 5.656 0l6.364-6.364c.502109-.503825.6969495-1.2374318.511-1.924l2.691-2.691c6.9413361 4.0907143 15.8416013 2.3818597 20.7743708-3.9886879 4.9327694-6.3705475 4.3590366-15.4151999-1.3391667-21.111389-5.6982033-5.696189-14.7430579-6.2667241-21.1118611-1.3317027-6.36880322 4.9350213-8.07451113 13.8358902-3.981343 20.7757796l-2.689 2.69c-.68718693-.1862925-1.42154901.0085461-1.926.511l-6.363 6.363c-.75019009.7501514-1.17164575 1.7675983-1.17164575 2.8285s.42145566 2.0783486 1.17164575 2.8285zm13.435-34.648c5.4674875-5.4669296 14.3315375-5.4666281 19.7986531.0006734 5.4671156 5.4673016 5.4671156 14.3313516 0 19.7986532-5.4671156 5.4673015-14.3311656 5.467603-19.7986531.0006734-2.6364066-2.6199175-4.1189184-6.1831993-4.1189184-9.9s1.4825118-7.2800825 4.1189184-9.9zm-2.731 19.7c.4068148.531178.8463331 1.0364904 1.316 1.513.4762518.4699452.9815821.909479 1.513 1.316l-2.219 2.22-1.414-1.414-1.415-1.415zm-10.7 9.29 6.36-6.362 4.242 4.242-6.364 6.364c-.791167.755814-2.036833.755814-2.828 0l-1.414-1.414c-.37524801-.375096-.58607293-.8839266-.58607293-1.4145s.21082492-1.039404.58607293-1.4145z"/>
		</g>
	</g>
</svg>